<svg width="160" height="160" viewBox="0 0 160 160" fill="none" xmlns="http://www.w3.org/2000/svg">
<g clip-path="url(#clip0_566_107)">
<path d="M80 160C35.8867 160 0 124.113 0 80C0 35.8867 35.8867 0 80 0C124.113 0 160 35.8867 160 80C160 124.113 124.113 160 80 160ZM80 6.66667C39.5667 6.66667 6.66667 39.5667 6.66667 80C6.66667 120.433 39.5667 153.333 80 153.333C120.433 153.333 153.333 120.433 153.333 80C153.333 39.5667 120.433 6.66667 80 6.66667Z" fill="#223552"/>
</g>
<g clip-path="url(#clip1_566_107)">
<path d="M89.1 57.6667C88.7936 57.3537 88.5518 56.9834 88.3885 56.577C88.2252 56.1706 88.1435 55.736 88.1481 55.298C88.1528 54.86 88.2437 54.4272 88.4156 54.0243C88.5874 53.6215 88.837 53.2564 89.15 52.95C89.463 52.6436 89.8333 52.4018 90.2397 52.2385C90.6461 52.0752 91.0807 51.9935 91.5187 51.9981C91.9567 52.0028 92.3895 52.0937 92.7923 52.2656C93.1952 52.4375 93.5602 52.687 93.8667 53L100 59.27V35.3333C100 34.4493 100.351 33.6014 100.976 32.9763C101.601 32.3512 102.449 32 103.333 32C104.217 32 105.065 32.3512 105.69 32.9763C106.315 33.6014 106.667 34.4493 106.667 35.3333V59.27L112.8 53C113.419 52.3679 114.263 52.0075 115.148 51.9981C116.033 51.9888 116.885 52.3312 117.517 52.95C118.149 53.5688 118.509 54.4134 118.519 55.298C118.528 56.1825 118.186 57.0346 117.567 57.6667L109.183 66.2333C107.644 67.78 105.555 68.6548 103.373 68.6667C103.353 68.6718 103.331 68.6718 103.31 68.6667C102.232 68.667 101.165 68.4545 100.17 68.0415C99.1748 67.6286 98.2708 67.0231 97.51 66.26L89.1 57.6667ZM116.667 68.6667C115.783 68.6667 114.935 69.0179 114.31 69.643C113.685 70.2681 113.333 71.1159 113.333 72V95.3333C113.333 97.9855 112.28 100.529 110.404 102.404C108.529 104.28 105.985 105.333 103.333 105.333H56.6667C54.0145 105.333 51.471 104.28 49.5956 102.404C47.7202 100.529 46.6667 97.9855 46.6667 95.3333V62.2367L68.2167 83.7867C71.347 86.8853 75.5719 88.6262 79.9765 88.6324C84.3811 88.6387 88.6109 86.9097 91.75 83.82L98.0233 77.7233C98.3423 77.4194 98.5979 77.0553 98.7753 76.6521C98.9527 76.2488 99.0484 75.8143 99.0569 75.3738C99.0653 74.9333 98.9864 74.4956 98.8246 74.0858C98.6628 73.676 98.4214 73.3023 98.1143 72.9864C97.8072 72.6705 97.4405 72.4186 97.0354 72.2453C96.6304 72.072 96.195 71.9807 95.7545 71.9767C95.3139 71.9727 94.8769 72.056 94.4688 72.222C94.0606 72.3879 93.6895 72.6331 93.3767 72.9433L87.07 79.0733C85.1644 80.8898 82.6327 81.9032 80 81.9032C77.3673 81.9032 74.8356 80.8898 72.93 79.0733L47.87 54C48.7127 52.3951 49.977 51.0504 51.5271 50.1107C53.0771 49.1709 54.854 48.6717 56.6667 48.6667H80C80.8841 48.6667 81.7319 48.3155 82.357 47.6904C82.9821 47.0652 83.3333 46.2174 83.3333 45.3333C83.3333 44.4493 82.9821 43.6014 82.357 42.9763C81.7319 42.3512 80.8841 42 80 42H56.6667C52.248 42.0053 48.0119 43.7629 44.8874 46.8874C41.7629 50.0119 40.0053 54.248 40 58.6667L40 95.3333C40.0053 99.752 41.7629 103.988 44.8874 107.113C48.0119 110.237 52.248 111.995 56.6667 112H103.333C107.752 111.995 111.988 110.237 115.113 107.113C118.237 103.988 119.995 99.752 120 95.3333V72C120 71.1159 119.649 70.2681 119.024 69.643C118.399 69.0179 117.551 68.6667 116.667 68.6667Z" fill="#223552"/>
</g>
<defs>
<clipPath id="clip0_566_107">
<rect width="160" height="160" fill="white"/>
</clipPath>
<clipPath id="clip1_566_107">
<rect width="80" height="80" fill="white" transform="translate(40 32)"/>
</clipPath>
</defs>
</svg>
