<svg width="320" height="320" viewBox="0 0 320 320" fill="none" xmlns="http://www.w3.org/2000/svg">
<mask id="mask0_316_667" style="mask-type:luminance" maskUnits="userSpaceOnUse" x="5" y="49" width="310" height="170">
<path d="M5.88165 49.47H314.042V218.11H5.88165V49.47Z" fill="white"/>
</mask>
<g mask="url(#mask0_316_667)">
<path d="M118.657 170.402H132.102V156.158H118.657V170.402ZM118.657 189.042H132.102V174.798H118.657V189.042ZM101.142 189.042H114.585V174.798H101.142V189.042ZM57.9284 214.232H79.2384V177.777H57.9284V214.232ZM101.142 170.402H114.585V156.158H101.142V170.402ZM199.983 133.742L199.825 57.4833L176.827 57.5317L176.992 133.79L199.983 133.742ZM189.99 56.5833L189.988 53.1983L205.213 53.1633L228.863 86.87C229.215 87.365 229.775 87.655 230.377 87.6533L235.942 87.64L235.937 83.9533L231.325 83.965L207.675 50.2533C207.332 49.7583 206.768 49.47 206.168 49.47L188.145 49.5117C187.125 49.515 186.303 50.3417 186.31 51.36L186.315 56.595L189.99 56.5833ZM242.032 93.035L314.033 92.8817L314 79.64L242.005 79.7983L236.837 75.8617L236.883 96.9933L242.032 93.035ZM5.95508 168.052C5.95508 186.888 19.0801 204.265 41.2084 218.225C28.3901 203.878 23.7784 188.442 29.7184 173.597C32.3501 167.02 37.3701 161.99 44.1884 158.395V147.64H27.2251C26.2967 147.64 25.4601 147.063 25.1301 146.19C24.8034 145.32 25.0484 144.34 25.7484 143.72L93.7901 83.9833C94.6434 83.2317 95.9167 83.24 96.7617 83.9983L126.27 110.467V104.197C126.27 102.955 127.272 101.957 128.512 101.957H140.117C141.347 101.957 142.355 102.953 142.355 104.197V124.892L163.358 143.732C164.05 144.352 164.282 145.34 163.952 146.203C163.62 147.067 162.788 147.638 161.858 147.638H147.213V165.243C154.88 168.12 162.517 171.42 169.985 175.122V58.8333C78.4201 61.5933 5.95508 123.79 5.95508 168.052ZM199.558 143.552V171.95H212.15V143.552H199.558ZM200.595 171.152C200.595 171.258 200.513 171.343 200.41 171.343C200.308 171.343 200.227 171.257 200.227 171.152V144.35C200.227 144.245 200.31 144.158 200.41 144.158C200.513 144.158 200.595 144.245 200.595 144.35V171.152ZM211.598 171.152C211.598 171.258 211.513 171.343 211.413 171.343C211.312 171.343 211.228 171.257 211.228 171.152V144.35C211.228 144.245 211.312 144.158 211.413 144.158C211.517 144.158 211.598 144.245 211.598 144.35V171.152ZM267.155 151.87C249.663 151.87 235.375 154.077 228.24 154.077C220.542 154.077 213.598 143.555 213.598 143.555H212.843V171.945L213.598 171.947C213.598 171.947 220.542 161.425 228.24 161.425C235.375 161.425 249.667 163.632 267.155 163.632C274.558 163.632 287.565 162.473 287.735 157.752C287.565 153.028 274.558 151.87 267.155 151.87ZM280.812 160.18C279.702 160.18 278.8 159.278 278.8 158.167C278.8 157.057 279.702 156.155 280.812 156.155C281.923 156.155 282.825 157.057 282.825 158.167C282.825 159.28 281.923 160.18 280.812 160.18ZM188.113 144.347C183.492 144.108 176.827 142.65 176.827 142.65V144.382L183.707 144.888L176.827 145.117V146.832L190.848 146.982L176.827 147.373V148.42L185.77 148.535L176.827 148.83V153.368L183.047 153.447L176.827 153.653V154.747L185.77 154.86L176.827 155.155V160.528L185.09 160.635L176.827 160.907V162.092L185.77 162.208L176.827 162.503V166.708L186.377 166.832L176.827 167.148V169.558L184.135 169.652L176.827 170.297V173.685C176.827 173.685 183.73 170.918 188.407 170.918C190.915 170.918 198.865 171.952 198.865 171.952V143.555C198.865 143.552 192.735 144.583 188.113 144.347Z" fill="#fff"/>
</g>
<path d="M29.7115 258.346C24.8349 258.333 21.0082 257.103 18.2315 254.653C15.4532 252.199 14.0649 248.839 14.0649 244.573C14.0649 240.303 15.4399 236.936 18.1915 234.473C20.9465 232.011 24.7249 230.779 29.5249 230.779C33.1865 230.779 36.3315 231.463 38.9582 232.826L39.0382 239.339H38.7315C37.4415 234.691 34.4999 232.366 29.9049 232.366C26.9215 232.366 24.5649 233.446 22.8315 235.606C21.1015 237.766 20.2382 240.718 20.2382 244.459C20.2382 248.198 21.0649 251.166 22.7182 253.366C24.3749 255.563 26.6182 256.698 29.4449 256.773C32.3782 256.773 34.6149 256.039 36.1582 254.573C37.7215 253.058 38.8065 250.456 39.4115 246.766H39.7182L40.0982 253.286C38.0482 256.673 34.5865 258.359 29.7115 258.346Z" fill="#fff"/>
<path d="M47.0468 234.493C49.7352 232.018 53.3602 230.779 57.9202 230.779C62.4802 230.779 66.1035 232.018 68.7935 234.493C71.4868 236.969 72.8335 240.329 72.8335 244.573C72.8335 248.818 71.4868 252.178 68.7935 254.653C66.1035 257.129 62.4802 258.366 57.9202 258.366C53.3602 258.366 49.7352 257.129 47.0468 254.653C44.3568 252.178 43.0135 248.818 43.0135 244.573C43.0135 240.329 44.3568 236.969 47.0468 234.493ZM51.5535 253.499C53.1085 255.683 55.2235 256.773 57.9002 256.773C60.5802 256.773 62.7018 255.683 64.2668 253.499C65.8352 251.313 66.6202 248.338 66.6202 244.573C66.6202 240.809 65.8352 237.833 64.2668 235.646C62.7018 233.459 60.5802 232.366 57.9002 232.366C55.2235 232.366 53.1085 233.459 51.5535 235.646C50.0018 237.833 49.2268 240.809 49.2268 244.573C49.2268 248.338 50.0018 251.313 51.5535 253.499Z" fill="#fff"/>
<path d="M104.622 231.686C103.737 231.686 103.069 232.066 102.615 232.826C102.41 233.151 102.295 233.529 102.269 233.959V253.513C102.269 255.206 102.384 256.633 102.615 257.793L102.729 258.366H102.382L83.2485 240.139V255.179C83.2485 255.811 83.4752 256.349 83.9285 256.793C84.3852 257.233 84.9302 257.453 85.5619 257.453H86.2819V257.833H74.8019V257.453H75.4819C76.1385 257.453 76.6952 257.233 77.1485 256.793C77.6019 256.349 77.8285 255.798 77.8285 255.139V235.473C77.8285 233.806 77.7152 232.418 77.4885 231.306L77.4152 230.739H77.7552L96.8885 248.966V233.999C96.8652 233.343 96.6252 232.793 96.1685 232.353C95.7152 231.909 95.1719 231.686 94.5419 231.686H93.8619V231.306H105.342V231.686H104.622Z" fill="#fff"/>
<path d="M107.571 254.306C107.571 252.489 107.961 250.936 108.744 249.646H109.091C109.064 249.851 109.051 250.053 109.051 250.253C109.051 251.996 109.674 253.518 110.924 254.819C112.178 256.123 113.888 256.773 116.058 256.773C117.751 256.773 119.071 256.369 120.018 255.559C120.968 254.751 121.444 253.729 121.444 252.493C121.444 251.759 121.208 251.103 120.738 250.519C120.271 249.938 119.494 249.293 118.411 248.586L111.818 244.226C109.364 242.586 108.138 240.566 108.138 238.166C108.138 237.913 108.164 237.659 108.218 237.406C108.368 235.411 109.144 233.809 110.544 232.599C111.948 231.386 113.824 230.779 116.171 230.779C117.561 230.779 119.279 230.904 121.324 231.153H123.718L123.224 236.726H122.844C122.844 235.411 122.358 234.356 121.384 233.559C120.411 232.764 119.114 232.366 117.498 232.366C115.528 232.366 114.101 232.973 113.218 234.186C112.764 234.769 112.538 235.351 112.538 235.933C112.538 236.511 112.651 237.003 112.878 237.406C113.233 238.064 114.004 238.773 115.191 239.533L122.424 244.226C124.699 245.719 125.838 247.666 125.838 250.066C125.838 252.743 124.921 254.796 123.091 256.226C121.259 257.653 118.828 258.366 115.798 258.366C114.078 258.366 112.491 258.156 111.038 257.739C109.584 257.323 108.518 256.759 107.838 256.053C107.659 255.573 107.571 254.991 107.571 254.306Z" fill="#fff"/>
<path d="M142.319 232.859V255.106C142.341 255.764 142.586 256.319 143.053 256.773C143.523 257.226 144.088 257.453 144.746 257.453H145.199L145.233 257.833H133.713V257.453H134.206C134.836 257.453 135.386 257.226 135.853 256.773C136.323 256.319 136.583 255.776 136.633 255.139V232.859H131.519C130.354 232.886 129.429 233.253 128.746 233.959C128.066 234.666 127.726 235.589 127.726 236.726V237.179H127.353V230.586C128.388 231.018 129.876 231.246 131.819 231.273H147.093C147.874 231.273 148.726 231.198 149.646 231.046C150.569 230.891 151.209 230.738 151.566 230.586V237.179H151.186V236.726C151.186 235.163 150.593 234.051 149.406 233.393C148.849 233.064 148.179 232.886 147.393 232.859H142.319Z" fill="#fff"/>
<path d="M163.349 232.973H161.715C161.665 232.973 161.629 232.973 161.602 232.973V255.066C161.629 255.724 161.875 256.286 162.342 256.753C162.809 257.219 163.37 257.453 164.029 257.453H164.522V257.833H153.002V257.453H153.495C154.402 257.453 155.095 257.063 155.575 256.279C155.779 255.924 155.892 255.533 155.915 255.106V234.073C155.892 233.416 155.645 232.853 155.175 232.386C154.709 231.919 154.149 231.686 153.495 231.686H153.002V231.306H165.995C168.449 231.306 170.522 231.838 172.215 232.899C173.072 233.429 173.752 234.169 174.255 235.119C174.762 236.066 175.015 237.304 175.015 238.833C175.015 240.358 174.484 241.829 173.422 243.246C172.364 244.659 170.824 245.466 168.802 245.666C170.269 246.146 171.557 247.259 172.669 249.006C175.397 253.376 177.417 255.978 178.729 256.813C179.385 257.213 180.209 257.426 181.195 257.453V257.833H177.482C175.282 257.833 173.455 257.544 172.002 256.966C170.549 256.384 169.405 255.359 168.575 253.893C168.095 253.058 167.045 250.898 165.429 247.413C164.722 245.871 163.864 245.024 162.855 244.873V244.493H164.029C165.165 244.493 166.17 244.153 167.042 243.473C167.912 242.789 168.499 241.678 168.802 240.139C168.904 239.606 168.955 239.189 168.955 238.886C168.955 236.816 168.537 235.319 167.702 234.399C166.87 233.476 165.797 232.999 164.482 232.973C164.229 232.973 163.85 232.973 163.349 232.973Z" fill="#fff"/>
<path d="M208.774 231.686H208.134C207.6 231.686 207.144 231.858 206.767 232.199C206.389 232.543 206.187 232.964 206.16 233.466V248.246C206.16 251.353 205.187 253.818 203.24 255.639C201.297 257.458 198.634 258.366 195.247 258.366C191.255 258.366 188.197 257.476 186.074 255.693C183.954 253.911 182.894 251.443 182.894 248.286V233.579C182.87 232.824 182.53 232.269 181.874 231.913C181.57 231.763 181.242 231.686 180.887 231.686H180.28V231.306H191.194V231.686H190.587C190.03 231.686 189.562 231.858 189.18 232.199C188.802 232.543 188.602 232.978 188.58 233.506V247.979C188.58 250.659 189.235 252.783 190.547 254.346C191.862 255.911 193.669 256.693 195.967 256.693C198.264 256.693 200.082 255.956 201.42 254.479C202.762 252.999 203.447 250.998 203.474 248.473V233.506C203.42 232.773 203.077 232.243 202.447 231.913C202.144 231.763 201.815 231.686 201.46 231.686H200.854V231.306H208.774V231.686Z" fill="#fff"/>
<path d="M245.076 257.453H245.682V257.833H234.309V257.493H234.882C235.309 257.466 235.672 257.289 235.976 256.959C236.282 256.631 236.409 256.264 236.356 255.859L234.882 242.106L227.756 254.386C226.822 255.951 226.342 257.353 226.316 258.593H225.936L216.202 242.219L214.722 255.859C214.669 256.264 214.792 256.638 215.096 256.979C215.402 257.323 215.771 257.493 216.202 257.493H216.769V257.833H208.849V257.453H209.456C210.162 257.453 210.772 257.239 211.289 256.813C211.809 256.383 212.119 255.799 212.222 255.066L215.362 230.779H215.709L227.456 250.099L238.749 230.779H239.089L242.309 255.066C242.432 255.799 242.752 256.383 243.269 256.813C243.789 257.239 244.391 257.453 245.076 257.453Z" fill="#fff"/>
<path d="M272.506 257.453H272.846V257.833H260.759V257.453H261.099C261.654 257.453 262.066 257.284 262.332 256.946C262.599 256.604 262.732 256.283 262.732 255.979C262.732 255.673 262.667 255.369 262.539 255.066L260.686 250.406H251.819L249.846 255.066C249.721 255.396 249.659 255.706 249.659 255.999C249.659 256.289 249.796 256.604 250.072 256.946C250.352 257.284 250.769 257.453 251.326 257.453H251.626V257.833H243.519V257.453H243.859C244.442 257.453 245.021 257.278 245.599 256.926C246.181 256.571 246.661 256.039 247.039 255.333L255.792 235.513C256.982 233.011 257.616 231.358 257.692 230.553H258.032L269.286 255.253C269.662 255.986 270.142 256.538 270.726 256.906C271.307 257.271 271.901 257.453 272.506 257.453ZM252.459 248.813H260.039L256.366 239.493L252.459 248.813Z" fill="#fff"/>
<path d="M287.17 257.453C287.698 257.453 288.126 257.199 288.456 256.693C288.606 256.418 288.683 256.153 288.683 255.899C288.683 255.646 288.606 255.393 288.456 255.139L283.15 246.879L277.583 255.106C277.431 255.359 277.356 255.619 277.356 255.886C277.356 256.149 277.431 256.406 277.583 256.659C277.933 257.189 278.376 257.453 278.91 257.453H279.403V257.833H270.043V257.453H270.57C271.983 257.453 273.233 256.746 274.323 255.333L281.79 244.759L274.776 233.919C274.345 233.289 273.79 232.759 273.11 232.333C272.43 231.903 271.71 231.686 270.95 231.686H270.416V231.306H283.303V231.686H282.81C282.28 231.686 281.851 231.939 281.523 232.446C281.371 232.723 281.296 232.993 281.296 233.259C281.296 233.526 281.358 233.773 281.483 233.999L286.223 241.313L290.883 234.033C291.033 233.784 291.11 233.526 291.11 233.259C291.11 232.993 291.02 232.733 290.843 232.479C290.513 231.951 290.085 231.686 289.556 231.686H289.063V231.306H298.383V231.686H297.856C297.096 231.686 296.386 231.896 295.73 232.313C295.076 232.731 294.52 233.256 294.063 233.886L287.623 243.473L295.236 255.253C295.666 255.889 296.23 256.416 296.923 256.833C297.62 257.246 298.336 257.453 299.07 257.453H299.596V257.833H286.676V257.453H287.17Z" fill="#fff"/>
</svg>
